<svg data-v-423bf9ae="" xmlns="http://www.w3.org/2000/svg" viewBox="0 0 321 100" class="iconLeftSlogan"><!----><!----><!----><g data-v-423bf9ae="" id="eea54cd5-b8a4-4ff5-a628-4b72921e2119" fill="white" transform="matrix(5.934717742604922,0,0,5.934717742604922,115.96090713025163,-26.172104339321642)"><path d="M4.19 14.52C6.52 14.52 7.85 13.26 7.85 11.41C7.85 9.80 6.93 8.92 4.96 8.57L4.05 8.40C3.11 8.23 2.69 7.92 2.69 7.18C2.69 6.45 3.23 6.03 4.28 6.03C5.32 6.03 5.99 6.44 6.47 7.04L7.73 5.85C6.94 4.91 5.85 4.41 4.38 4.41C2.20 4.41 0.84 5.54 0.84 7.29C0.84 8.89 1.79 9.83 3.77 10.14L4.69 10.28C5.71 10.46 6.02 10.86 6.02 11.52C6.02 12.35 5.43 12.89 4.30 12.89C3.29 12.89 2.46 12.47 1.79 11.69L0.55 12.89C1.37 13.86 2.52 14.52 4.19 14.52ZM13.54 14.52C16.11 14.52 17.79 12.77 17.79 9.46C17.79 6.16 16.11 4.41 13.54 4.41C10.98 4.41 9.28 6.16 9.28 9.46C9.28 12.77 10.98 14.52 13.54 14.52ZM13.54 12.88C12.14 12.88 11.24 11.89 11.24 10.22L11.24 8.71C11.24 7.04 12.14 6.05 13.54 6.05C14.94 6.05 15.83 7.04 15.83 8.71L15.83 10.22C15.83 11.89 14.94 12.88 13.54 12.88ZM25.94 6.22L25.94 4.58L18.55 4.58L18.55 6.22L21.32 6.22L21.32 14.35L23.17 14.35L23.17 6.22ZM34.51 14.35L31.26 4.58L28.97 4.58L25.69 14.35L27.57 14.35L28.34 11.86L31.81 11.86L32.59 14.35ZM31.36 10.28L28.78 10.28L30.03 6.26L30.10 6.26Z"></path></g><!----><g data-v-423bf9ae="" id="525ff5fc-1dc0-4f36-95b6-fac6a143dccb" transform="matrix(1.0499999152289496,0,0,1.0499999152289496,-2.782499692704654,-1.7324917666120925)" stroke="none" fill="white"><path d="M13.2 21.8c5.3 0 9.7-4.3 9.7-9.7s-4.3-9.7-9.7-9.7-9.7 4.3-9.7 9.7 4.3 9.7 9.7 9.7zm0-15.3c3.1 0 5.7 2.5 5.7 5.7s-2.5 5.7-5.7 5.7-5.7-2.5-5.7-5.7 2.5-5.7 5.7-5.7zM88.2 21.8c5.3 0 9.7-4.3 9.7-9.7s-4.3-9.7-9.7-9.7c-5.3 0-9.7 4.3-9.7 9.7s4.3 9.7 9.7 9.7zm0-15.3c3.1 0 5.7 2.5 5.7 5.7s-2.5 5.7-5.7 5.7-5.7-2.5-5.7-5.7 2.5-5.7 5.7-5.7z"></path><path d="M88.2 27.5c-1.9 0-3.8.6-5.3 1.6L71.3 17.4c1-1.5 1.6-3.3 1.6-5.3 0-5.3-4.3-9.7-9.7-9.7-5.3 0-9.7 4.3-9.7 9.7s4.3 9.7 9.7 9.7c1.9 0 3.8-.6 5.3-1.6l11.6 11.6c-1 1.5-1.6 3.3-1.6 5.3 0 1.9.6 3.8 1.6 5.3L68.4 54c-1.5-1-3.3-1.6-5.3-1.6-5.3 0-9.7 4.3-9.7 9.7 0 5.3 4.3 9.7 9.7 9.7 5.3 0 9.7-4.3 9.7-9.7 0-1.9-.6-3.8-1.6-5.3l11.6-11.6c1.5 1 3.3 1.6 5.3 1.6 5.3 0 9.7-4.3 9.7-9.7s-4.3-9.6-9.6-9.6zM57.5 12.1c0-3.1 2.5-5.7 5.7-5.7s5.7 2.5 5.7 5.7-2.5 5.7-5.7 5.7-5.7-2.5-5.7-5.7zm5.7 55.7c-3.1 0-5.7-2.5-5.7-5.7s2.5-5.7 5.7-5.7 5.7 2.5 5.7 5.7-2.6 5.7-5.7 5.7zm25-25c-3.1 0-5.7-2.5-5.7-5.7s2.5-5.7 5.7-5.7 5.7 2.5 5.7 5.7-2.6 5.7-5.7 5.7z"></path><path d="M13.2 46.8c5.3 0 9.7-4.3 9.7-9.7 0-1.9-.6-3.8-1.6-5.3l11.6-11.6c1.5 1 3.3 1.6 5.3 1.6 1.9 0 3.8-.6 5.3-1.6l11.6 11.6c-1 1.5-1.6 3.3-1.6 5.3 0 5.3 4.3 9.7 9.7 9.7 5.3 0 9.7-4.3 9.7-9.7s-4.3-9.7-9.7-9.7c-1.9 0-3.8.6-5.3 1.6L46.3 17.4c1-1.5 1.6-3.3 1.6-5.3 0-5.3-4.3-9.7-9.7-9.7s-9.7 4.3-9.7 9.7c0 1.9.6 3.8 1.6 5.3L18.4 29c-1.5-1-3.3-1.6-5.3-1.6-5.3 0-9.7 4.3-9.7 9.7s4.4 9.7 9.8 9.7zm55.6-9.7c0 3.1-2.5 5.7-5.7 5.7s-5.7-2.5-5.7-5.7 2.5-5.7 5.7-5.7 5.7 2.6 5.7 5.7zM38.2 6.5c3.1 0 5.7 2.5 5.7 5.7s-2.5 5.7-5.7 5.7-5.7-2.5-5.7-5.7 2.5-5.7 5.7-5.7zm-25 25c3.1 0 5.7 2.5 5.7 5.7s-2.5 5.7-5.7 5.7-5.7-2.5-5.7-5.7 2.5-5.7 5.7-5.7zM13.2 77.5c-5.3 0-9.7 4.3-9.7 9.7 0 5.3 4.3 9.7 9.7 9.7s9.7-4.3 9.7-9.7c-.1-5.4-4.4-9.7-9.7-9.7zm0 15.3c-3.1 0-5.7-2.5-5.7-5.7s2.5-5.7 5.7-5.7 5.7 2.5 5.7 5.7-2.6 5.7-5.7 5.7z"></path><path d="M38.2 77.5c-1.9 0-3.8.6-5.3 1.6L21.3 67.4c1-1.5 1.6-3.3 1.6-5.3 0-1.9-.6-3.8-1.6-5.3l11.6-11.6c1.5 1 3.3 1.6 5.3 1.6 5.3 0 9.7-4.3 9.7-9.7s-4.3-9.7-9.7-9.7-9.7 4.3-9.7 9.7c0 1.9.6 3.8 1.6 5.3L18.4 54c-1.5-1-3.3-1.6-5.3-1.6-5.3 0-9.7 4.3-9.7 9.7 0 5.3 4.3 9.7 9.7 9.7 1.9 0 3.8-.6 5.3-1.6L30 81.8c-1 1.5-1.6 3.3-1.6 5.3 0 5.3 4.3 9.7 9.7 9.7s9.7-4.3 9.7-9.7c0-5.3-4.3-9.6-9.6-9.6zm0-46c3.1 0 5.7 2.5 5.7 5.7s-2.5 5.7-5.7 5.7-5.7-2.5-5.7-5.7 2.5-5.7 5.7-5.7zM7.5 62.1c0-3.1 2.5-5.7 5.7-5.7s5.7 2.5 5.7 5.7-2.5 5.7-5.7 5.7-5.7-2.5-5.7-5.7zm30.7 30.7c-3.1 0-5.7-2.5-5.7-5.7s2.5-5.7 5.7-5.7 5.7 2.5 5.7 5.7-2.6 5.7-5.7 5.7zM88.2 77.5c-5.3 0-9.7 4.3-9.7 9.7 0 5.3 4.3 9.7 9.7 9.7 5.3 0 9.7-4.3 9.7-9.7-.1-5.4-4.4-9.7-9.7-9.7zm0 15.3c-3.1 0-5.7-2.5-5.7-5.7s2.5-5.7 5.7-5.7 5.7 2.5 5.7 5.7-2.6 5.7-5.7 5.7z"></path><path d="M88.2 52.5c-5.3 0-9.7 4.3-9.7 9.7 0 1.9.6 3.8 1.6 5.3L68.4 79c-1.5-1-3.3-1.6-5.3-1.6-1.9 0-3.8.6-5.3 1.6L46.3 67.4c1-1.5 1.6-3.3 1.6-5.3 0-5.3-4.3-9.7-9.7-9.7s-9.7 4.3-9.7 9.7c0 5.3 4.3 9.7 9.7 9.7 1.9 0 3.8-.6 5.3-1.6l11.6 11.6c-1 1.5-1.6 3.3-1.6 5.3 0 5.3 4.3 9.7 9.7 9.7 5.3 0 9.7-4.3 9.7-9.7 0-1.9-.6-3.8-1.6-5.3l11.6-11.6c1.5 1 3.3 1.6 5.3 1.6 5.3 0 9.7-4.3 9.7-9.7-.1-5.3-4.4-9.6-9.7-9.6zm-55.7 9.6c0-3.1 2.5-5.7 5.7-5.7s5.7 2.5 5.7 5.7-2.5 5.7-5.7 5.7-5.7-2.5-5.7-5.7zm30.7 30.7c-3.1 0-5.7-2.5-5.7-5.7s2.5-5.7 5.7-5.7 5.7 2.5 5.7 5.7-2.6 5.7-5.7 5.7zm25-25c-3.1 0-5.7-2.5-5.7-5.7s2.5-5.7 5.7-5.7 5.7 2.5 5.7 5.7-2.6 5.7-5.7 5.7z"></path></g><!----><g data-v-423bf9ae="" id="892851a9-1683-4f62-b3b3-70227fae506a" fill="white" transform="matrix(0.7760608950106047,0,0,0.7760608950106047,118.75936258493512,57.881353820355876)"><path d="M3.53 13.16L3.53 13.16Q2.46 13.16 1.68 12.74L1.68 12.74L1.68 12.74Q0.90 12.32 0.60 11.52L0.60 11.52L1.18 11.14L1.18 11.14Q1.39 11.84 2.03 12.19L2.03 12.19L2.03 12.19Q2.67 12.54 3.61 12.54L3.61 12.54L3.61 12.54Q4.56 12.54 5.10 12.18L5.10 12.18L5.10 12.18Q5.64 11.82 5.64 11.21L5.64 11.21L5.64 11.21Q5.64 10.70 5.18 10.39L5.18 10.39L5.18 10.39Q4.72 10.08 3.56 9.87L3.56 9.87L3.56 9.87Q2.09 9.60 1.48 9.16L1.48 9.16L1.48 9.16Q0.88 8.71 0.88 7.88L0.88 7.88L0.88 7.88Q0.88 7.34 1.22 6.87L1.22 6.87L1.22 6.87Q1.55 6.41 2.17 6.15L2.17 6.15L2.17 6.15Q2.79 5.88 3.57 5.88L3.57 5.88L3.57 5.88Q4.68 5.88 5.34 6.30L5.34 6.30L5.34 6.30Q6.01 6.72 6.26 7.59L6.26 7.59L5.66 7.94L5.66 7.94Q5.26 6.50 3.57 6.50L3.57 6.50L3.57 6.50Q3.01 6.50 2.56 6.68L2.56 6.68L2.56 6.68Q2.10 6.86 1.84 7.16L1.84 7.16L1.84 7.16Q1.58 7.46 1.58 7.81L1.58 7.81L1.58 7.81Q1.58 8.39 2.06 8.71L2.06 8.71L2.06 8.71Q2.53 9.03 3.74 9.24L3.74 9.24L3.74 9.24Q5.17 9.48 5.75 9.93L5.75 9.93L5.75 9.93Q6.34 10.37 6.34 11.19L6.34 11.19L6.34 11.19Q6.34 12.08 5.58 12.62L5.58 12.62L5.58 12.62Q4.82 13.16 3.53 13.16L3.53 13.16ZM18.93 12.00L19.18 12.57L19.18 12.57Q18.90 12.85 18.49 13.01L18.49 13.01L18.49 13.01Q18.09 13.16 17.60 13.16L17.60 13.16L17.60 13.16Q16.74 13.16 16.26 12.69L16.26 12.69L16.26 12.69Q15.78 12.22 15.78 11.27L15.78 11.27L15.78 6.62L14.38 6.62L14.38 6.02L15.78 6.02L15.78 4.27L16.48 4.07L16.48 6.02L19.11 6.02L19.11 6.62L16.48 6.62L16.48 11.17L16.48 11.17Q16.48 11.83 16.79 12.17L16.79 12.17L16.79 12.17Q17.11 12.52 17.71 12.52L17.71 12.52L17.71 12.52Q18.41 12.52 18.93 12.00L18.93 12.00ZM33.22 12.56L33.22 12.56Q33.57 12.56 33.77 12.46L33.77 12.46L33.73 13.02L33.73 13.02Q33.47 13.16 33.04 13.16L33.04 13.16L33.04 13.16Q32.55 13.16 32.24 12.89L32.24 12.89L32.24 12.89Q31.93 12.63 31.89 11.97L31.89 11.97L31.89 11.97Q31.57 12.53 30.86 12.84L30.86 12.84L30.86 12.84Q30.14 13.16 29.36 13.16L29.36 13.16L29.36 13.16Q28.32 13.16 27.70 12.70L27.70 12.70L27.70 12.70Q27.08 12.24 27.08 11.38L27.08 11.38L27.08 11.38Q27.08 9.76 29.74 9.28L29.74 9.28L31.88 8.90L31.88 8.29L31.88 8.29Q31.88 7.45 31.38 6.97L31.38 6.97L31.38 6.97Q30.88 6.50 29.97 6.50L29.97 6.50L29.97 6.50Q28.31 6.50 27.73 7.98L27.73 7.98L27.20 7.59L27.20 7.59Q27.51 6.76 28.22 6.32L28.22 6.32L28.22 6.32Q28.94 5.88 29.97 5.88L29.97 5.88L29.97 5.88Q31.19 5.88 31.88 6.47L31.88 6.47L31.88 6.47Q32.58 7.07 32.58 8.20L32.58 8.20L32.58 11.82L32.58 11.82Q32.58 12.56 33.22 12.56L33.22 12.56ZM29.43 12.54L29.43 12.54Q30.02 12.54 30.58 12.34L30.58 12.34L30.58 12.34Q31.14 12.14 31.51 11.74L31.51 11.74L31.51 11.74Q31.88 11.34 31.88 10.78L31.88 10.78L31.88 9.48L29.96 9.83L29.96 9.83Q28.83 10.04 28.31 10.42L28.31 10.42L28.31 10.42Q27.79 10.79 27.79 11.38L27.79 11.38L27.79 11.38Q27.79 11.94 28.22 12.24L28.22 12.24L28.22 12.24Q28.66 12.54 29.43 12.54L29.43 12.54ZM45.58 12.00L45.84 12.57L45.84 12.57Q45.56 12.85 45.15 13.01L45.15 13.01L45.15 13.01Q44.74 13.16 44.25 13.16L44.25 13.16L44.25 13.16Q43.40 13.16 42.92 12.69L42.92 12.69L42.92 12.69Q42.43 12.22 42.43 11.27L42.43 11.27L42.43 6.62L41.03 6.62L41.03 6.02L42.43 6.02L42.43 4.27L43.13 4.07L43.13 6.02L45.77 6.02L45.77 6.62L43.13 6.62L43.13 11.17L43.13 11.17Q43.13 11.83 43.45 12.17L43.45 12.17L43.45 12.17Q43.76 12.52 44.37 12.52L44.37 12.52L44.37 12.52Q45.07 12.52 45.58 12.00L45.58 12.00ZM60.07 9.35L60.07 9.35Q60.07 9.59 60.05 9.81L60.05 9.81L54.49 9.81L54.49 9.81Q54.56 11.10 55.25 11.82L55.25 11.82L55.25 11.82Q55.94 12.54 57.11 12.54L57.11 12.54L57.11 12.54Q57.93 12.54 58.53 12.21L58.53 12.21L58.53 12.21Q59.12 11.87 59.39 11.26L59.39 11.26L59.98 11.56L59.98 11.56Q59.58 12.33 58.86 12.75L58.86 12.75L58.86 12.75Q58.13 13.16 57.11 13.16L57.11 13.16L57.11 13.16Q55.55 13.16 54.68 12.19L54.68 12.19L54.68 12.19Q53.80 11.23 53.80 9.52L53.80 9.52L53.80 9.52Q53.80 7.81 54.65 6.85L54.65 6.85L54.65 6.85Q55.50 5.88 57.02 5.88L57.02 5.88L57.02 5.88Q58.45 5.88 59.26 6.83L59.26 6.83L59.26 6.83Q60.07 7.78 60.07 9.35L60.07 9.35ZM57.02 6.50L57.02 6.50Q55.89 6.50 55.23 7.20L55.23 7.20L55.23 7.20Q54.57 7.91 54.49 9.18L54.49 9.18L59.42 9.18L59.42 9.18Q59.35 7.92 58.72 7.21L58.72 7.21L58.72 7.21Q58.10 6.50 57.02 6.50L57.02 6.50ZM73.25 8.95L73.25 9.66L68.95 9.66L68.95 8.95L73.25 8.95ZM85.48 5.88L85.48 5.88Q87.04 5.88 87.93 6.85L87.93 6.85L87.93 6.85Q88.82 7.83 88.82 9.52L88.82 9.52L88.82 9.52Q88.82 11.21 87.93 12.19L87.93 12.19L87.93 12.19Q87.04 13.16 85.48 13.16L85.48 13.16L85.48 13.16Q83.93 13.16 83.04 12.19L83.04 12.19L83.04 12.19Q82.15 11.21 82.15 9.52L82.15 9.52L82.15 9.52Q82.15 7.83 83.04 6.85L83.04 6.85L83.04 6.85Q83.93 5.88 85.48 5.88L85.48 5.88ZM85.48 6.48L85.48 6.48Q84.25 6.48 83.55 7.29L83.55 7.29L83.55 7.29Q82.85 8.11 82.85 9.52L82.85 9.52L82.85 9.52Q82.85 10.93 83.55 11.75L83.55 11.75L83.55 11.75Q84.25 12.56 85.48 12.56L85.48 12.56L85.48 12.56Q86.72 12.56 87.42 11.75L87.42 11.75L87.42 11.75Q88.12 10.93 88.12 9.52L88.12 9.52L88.12 9.52Q88.12 8.11 87.42 7.29L87.42 7.29L87.42 7.29Q86.72 6.48 85.48 6.48L85.48 6.48ZM98.90 4.91L98.90 6.02L101.36 6.02L101.36 6.62L98.90 6.62L98.90 13.02L98.20 13.02L98.20 6.62L96.80 6.62L96.80 6.02L98.20 6.02L98.20 4.84L98.20 4.84Q98.20 3.86 98.74 3.30L98.74 3.30L98.74 3.30Q99.29 2.73 100.28 2.73L100.28 2.73L100.28 2.73Q101.04 2.73 101.42 3.11L101.42 3.11L101.22 3.67L101.22 3.67Q100.87 3.36 100.34 3.36L100.34 3.36L100.34 3.36Q99.65 3.36 99.27 3.76L99.27 3.76L99.27 3.76Q98.90 4.16 98.90 4.91L98.90 4.91ZM113.06 8.95L113.06 9.66L108.77 9.66L108.77 8.95L113.06 8.95ZM125.68 12.00L125.93 12.57L125.93 12.57Q125.65 12.85 125.24 13.01L125.24 13.01L125.24 13.01Q124.84 13.16 124.35 13.16L124.35 13.16L124.35 13.16Q123.49 13.16 123.01 12.69L123.01 12.69L123.01 12.69Q122.53 12.22 122.53 11.27L122.53 11.27L122.53 6.62L121.13 6.62L121.13 6.02L122.53 6.02L122.53 4.27L123.23 4.07L123.23 6.02L125.86 6.02L125.86 6.62L123.23 6.62L123.23 11.17L123.23 11.17Q123.23 11.83 123.54 12.17L123.54 12.17L123.54 12.17Q123.86 12.52 124.46 12.52L124.46 12.52L124.46 12.52Q125.16 12.52 125.68 12.00L125.68 12.00ZM137.62 5.88L137.62 5.88Q138.82 5.88 139.56 6.55L139.56 6.55L139.56 6.55Q140.29 7.22 140.29 8.47L140.29 8.47L140.29 13.02L139.59 13.02L139.59 8.69L139.59 8.69Q139.59 7.59 139.04 7.03L139.04 7.03L139.04 7.03Q138.49 6.48 137.55 6.48L137.55 6.48L137.55 6.48Q136.88 6.48 136.30 6.80L136.30 6.80L136.30 6.80Q135.73 7.11 135.39 7.70L135.39 7.70L135.39 7.70Q135.04 8.29 135.04 9.07L135.04 9.07L135.04 13.02L134.34 13.02L134.34 2.80L135.04 2.80L135.04 7.41L135.04 7.41Q135.38 6.66 136.06 6.27L136.06 6.27L136.06 6.27Q136.74 5.88 137.62 5.88L137.62 5.88ZM155.54 9.35L155.54 9.35Q155.54 9.59 155.51 9.81L155.51 9.81L149.95 9.81L149.95 9.81Q150.02 11.10 150.72 11.82L150.72 11.82L150.72 11.82Q151.41 12.54 152.57 12.54L152.57 12.54L152.57 12.54Q153.40 12.54 153.99 12.21L153.99 12.21L153.99 12.21Q154.59 11.87 154.85 11.26L154.85 11.26L155.44 11.56L155.44 11.56Q155.05 12.33 154.32 12.75L154.32 12.75L154.32 12.75Q153.59 13.16 152.57 13.16L152.57 13.16L152.57 13.16Q151.02 13.16 150.14 12.19L150.14 12.19L150.14 12.19Q149.27 11.23 149.27 9.52L149.27 9.52L149.27 9.52Q149.27 7.81 150.12 6.85L150.12 6.85L150.12 6.85Q150.96 5.88 152.49 5.88L152.49 5.88L152.49 5.88Q153.92 5.88 154.73 6.83L154.73 6.83L154.73 6.83Q155.54 7.78 155.54 9.35L155.54 9.35ZM152.49 6.50L152.49 6.50Q151.35 6.50 150.70 7.20L150.70 7.20L150.70 7.20Q150.04 7.91 149.95 9.18L149.95 9.18L154.88 9.18L154.88 9.18Q154.81 7.92 154.19 7.21L154.19 7.21L154.19 7.21Q153.57 6.50 152.49 6.50L152.49 6.50ZM168.71 8.95L168.71 9.66L164.42 9.66L164.42 8.95L168.71 8.95ZM183.46 12.56L183.46 12.56Q183.81 12.56 184.00 12.46L184.00 12.46L183.96 13.02L183.96 13.02Q183.71 13.16 183.27 13.16L183.27 13.16L183.27 13.16Q182.78 13.16 182.48 12.89L182.48 12.89L182.48 12.89Q182.17 12.63 182.13 11.97L182.13 11.97L182.13 11.97Q181.80 12.53 181.09 12.84L181.09 12.84L181.09 12.84Q180.38 13.16 179.59 13.16L179.59 13.16L179.59 13.16Q178.56 13.16 177.93 12.70L177.93 12.70L177.93 12.70Q177.31 12.24 177.31 11.38L177.31 11.38L177.31 11.38Q177.31 9.76 179.97 9.28L179.97 9.28L182.11 8.90L182.11 8.29L182.11 8.29Q182.11 7.45 181.62 6.97L181.62 6.97L181.62 6.97Q181.12 6.50 180.21 6.50L180.21 6.50L180.21 6.50Q178.54 6.50 177.97 7.98L177.97 7.98L177.44 7.59L177.44 7.59Q177.74 6.76 178.46 6.32L178.46 6.32L178.46 6.32Q179.17 5.88 180.21 5.88L180.21 5.88L180.21 5.88Q181.43 5.88 182.12 6.47L182.12 6.47L182.12 6.47Q182.81 7.07 182.81 8.20L182.81 8.20L182.81 11.82L182.81 11.82Q182.81 12.56 183.46 12.56L183.46 12.56ZM179.66 12.54L179.66 12.54Q180.25 12.54 180.81 12.34L180.81 12.34L180.81 12.34Q181.37 12.14 181.74 11.74L181.74 11.74L181.74 11.74Q182.11 11.34 182.11 10.78L182.11 10.78L182.11 9.48L180.19 9.83L180.19 9.83Q179.06 10.04 178.54 10.42L178.54 10.42L178.54 10.42Q178.02 10.79 178.02 11.38L178.02 11.38L178.02 11.38Q178.02 11.94 178.46 12.24L178.46 12.24L178.46 12.24Q178.89 12.54 179.66 12.54L179.66 12.54ZM195.37 5.88L195.37 5.88Q195.93 5.88 196.25 6.12L196.25 6.12L196.07 6.78L196.07 6.78Q195.75 6.52 195.17 6.52L195.17 6.52L195.17 6.52Q194.64 6.52 194.17 6.85L194.17 6.85L194.17 6.85Q193.70 7.18 193.42 7.78L193.42 7.78L193.42 7.78Q193.13 8.37 193.13 9.10L193.13 9.10L193.13 13.02L192.43 13.02L192.43 6.02L193.02 6.02L193.10 7.45L193.10 7.45Q193.40 6.71 193.98 6.29L193.98 6.29L193.98 6.29Q194.56 5.88 195.37 5.88L195.37 5.88ZM208.11 12.00L208.36 12.57L208.36 12.57Q208.08 12.85 207.68 13.01L207.68 13.01L207.68 13.01Q207.27 13.16 206.78 13.16L206.78 13.16L206.78 13.16Q205.93 13.16 205.44 12.69L205.44 12.69L205.44 12.69Q204.96 12.22 204.96 11.27L204.96 11.27L204.96 6.62L203.56 6.62L203.56 6.02L204.96 6.02L204.96 4.27L205.66 4.07L205.66 6.02L208.29 6.02L208.29 6.62L205.66 6.62L205.66 11.17L205.66 11.17Q205.66 11.83 205.98 12.17L205.98 12.17L205.98 12.17Q206.29 12.52 206.89 12.52L206.89 12.52L206.89 12.52Q207.59 12.52 208.11 12.00L208.11 12.00Z"></path></g></svg>